<?xml version="1.0" encoding="UTF-8" standalone="no" ?>
<!DOCTYPE svg PUBLIC "-//W3C//DTD SVG 1.1//EN" "http://www.w3.org/Graphics/SVG/1.1/DTD/svg11.dtd">
<svg xmlns="http://www.w3.org/2000/svg" xmlns:xlink="http://www.w3.org/1999/xlink" version="1.1" width="635" height="175" viewBox="0 0 635 175" xml:space="preserve">
<desc>Created with Fabric.js 3.6.3</desc>
<defs>
</defs>
<g transform="matrix(4.05 0 0 4.05 316.92 87.15)"  >
<path style="stroke: none; stroke-width: 1; stroke-dasharray: none; stroke-linecap: butt; stroke-dashoffset: 0; stroke-linejoin: miter; stroke-miterlimit: 4; fill: rgb(255,255,255); fill-rule: nonzero; opacity: 1;"  transform=" translate(-99, -111)" d="M 41 90 L 40.75 91.5 L 40.6111 92.0556 L 40.2222 94 L 39.9444 96 L 39.6111 98 L 39.3889 99 L 39.1944 100 L 38.8056 102 L 38.6111 103 L 38.3889 104 L 38.0833 105.944 L 38.0278 106.944 L 38 109 L 42 109 L 41.75 107.5 L 41.3889 105.944 L 41.1111 104 L 41.1111 103 L 41.3889 101 L 41.6111 100 L 41.7778 99 L 42.0556 97 L 42.3889 95 L 42.7778 93.0556 L 42.9167 92.0556 L 43 90 L 41 90 M 27 99 L 25.5556 98.2778 L 25 98.25 L 23 98 L 23 100.056 L 22.9722 101.056 L 22.9167 102 L 22.6111 104 L 22.3889 105 L 22.1944 106 L 21.8056 108 L 21.6111 109 L 21.3889 110 L 21.0833 112 L 21.0278 112.944 L 21 113.944 L 21 116 L 23 116 L 23.0833 114.5 L 23.2222 113.944 L 23.6111 112 L 23.9167 110.056 L 24 108 L 26.0556 108.583 L 27.0556 108.778 L 28 108.889 L 29.9722 108.667 L 30.9167 108.278 L 32.5 106.889 L 33.5 105 L 33.9167 103 L 34 101.056 L 34 100.056 L 34 98 L 31.9444 97.4167 L 30.0278 97.1944 L 29.1111 97.3056 L 27.7778 97.8611 L 27 99 M 70 98 L 70.6667 99.0833 L 70.9722 99.4722 L 71.6944 101.083 L 71.8889 102.028 L 71.9722 103 L 72 105 L 72 105.944 L 72 109 L 76 109 L 75.3333 107.667 L 75.1389 107.306 L 74 107 L 74.0833 105.5 L 74.2222 104.944 L 74.6111 103 L 74.8889 101 L 74.75 99.0556 L 74.7222 98.5 L 74 97 L 72 97.25 L 71.4444 97.2778 L 70 98 M 80 108 L 81 109 L 83.0556 108.917 L 84.9444 108.611 L 86.5 108.25 L 88 108 L 87.75 109.5 L 87.5833 110.056 L 87.3056 111.056 L 86.6667 112.944 L 86.4444 113.5 L 86 115 L 83 115 L 82.5833 113.556 L 82.25 112.444 L 82 111 L 81 111 L 79 113 L 79 115 L 81.0556 116.333 L 82.0556 116.694 L 83 116.806 L 85 116.5 L 86.9167 115.5 L 88.5 113.917 L 89.5 112 L 89.75 111 L 90.0556 109 L 90.3889 107 L 90.6111 106 L 90.8056 105 L 91.1944 103 L 91.3889 102 L 91.7778 100.056 L 91.9167 99.5 L 92 98 L 90 98 L 89 99 L 87.6944 97.6667 L 85.9722 97.1944 L 84.0833 97.5 L 83.25 97.9444 L 82.5 98.5 L 81.4722 100.083 L 80.8611 102 L 80.6389 103 L 80.3889 104 L 80.0833 105.944 L 80.0278 106.5 L 80 108 M 95 108 L 97.0556 108.583 L 99 108.917 L 101 108.917 L 102.889 108.5 L 103.667 108.111 L 104.639 107.222 L 105 106 L 103.5 106.25 L 102 106.611 L 101.056 106.778 L 100.5 106.917 L 99 107 L 98 106 L 98.0278 104.5 L 98.3333 102.944 L 99.3333 101.111 L 100.972 99.7222 L 102.5 99.1111 L 104 99 L 104 103 L 107 103 L 106.972 101.5 L 106.667 99.9722 L 106.278 99.1111 L 104.889 97.7222 L 103 97.1111 L 101 97.1111 L 100 97.3333 L 98.1111 98.3333 L 96.6944 100.028 L 95.8889 102 L 95.6389 103 L 95.3889 104 L 95.0833 105.944 L 95.0278 106.5 L 95 108 M 48 98 L 47.9167 99.5 L 47.7778 100.056 L 47.6111 101.056 L 47.3889 102 L 47.0833 104 L 47.0278 105 L 47 106.944 L 47 109 L 49.0556 108.972 L 50 108.944 L 50.9444 108.75 L 51.5 108.722 L 53 108 L 52.2778 107.278 L 51.75 107.25 L 50 107 L 50 98 L 48 98 M 56 98 L 55.9722 99.5 L 55.7778 101.056 L 55.6111 102 L 55.3889 103 L 55.1111 105 L 55.3333 106.889 L 56.2778 108.278 L 57.0556 108.667 L 59 109 L 58.75 107.5 L 58.6111 106.944 L 58.2222 105 L 58.1111 104 L 58.1111 103 L 58.3889 101.056 L 58.75 99.5 L 59 98 L 56 98 M 65 98 L 64.9167 100.056 L 64.6111 102 L 64.3889 103 L 64.0833 105 L 64.0278 105.944 L 64 106.944 L 64 109 L 66 109 L 66.0833 106.944 L 66.3889 105 L 66.6111 104 L 66.9167 102 L 66.9722 101.056 L 67 100.056 L 67 98 L 65 98 M 30 99 L 30.7222 100.5 L 30.75 101.056 L 30.9444 102.056 L 30.9722 102.944 L 31 103.944 L 31 106 L 30 107 L 26 107 L 25 106 L 25 104.5 L 25.1111 102.944 L 25.7222 101.111 L 27.0556 99.7222 L 27.9722 99.3333 L 30 99 M 88 99 L 88.7222 100.5 L 88.75 101.056 L 88.9444 102.056 L 88.9722 102.944 L 89 103.944 L 89 106 L 86.9444 106.583 L 85.0556 106.917 L 83 107 L 83 104.944 L 83.0278 103.944 L 83.1111 103 L 83.7222 101.111 L 85.0556 99.7222 L 85.9722 99.3333 L 88 99 M 94 115 L 93.9167 116.5 L 93.7778 117.056 L 93.6111 118.056 L 93.2222 120 L 93.0833 121 L 92.9167 123 L 92.7778 124 L 92.3889 126 L 92.0833 127.944 L 92.0278 128.944 L 92 131 L 92.8056 130.222 L 92.9722 129.694 L 93.3333 128.944 L 93.75 127.5 L 94 126 L 96.0556 126 L 97.0556 126 L 99 125.917 L 100.972 125.5 L 102.75 124.5 L 104.056 122.917 L 104.75 121 L 104.972 119.056 L 105 118.056 L 105 116 L 104 115 L 94 115 M 112 115 L 111.417 117.056 L 111.056 119 L 110.944 120 L 110.611 122 L 110.389 123 L 110.194 124 L 109.806 126 L 109.611 127 L 109.389 128 L 109.083 129.944 L 109 132 L 111 132 L 111.083 130.5 L 111.222 129.944 L 111.389 128.944 L 111.778 127 L 111.917 126 L 112.083 124 L 112.222 123 L 112.611 121 L 112.917 119.056 L 112.972 118.056 L 113 116 L 119 116 L 120 117 L 120 123 L 118.556 123.25 L 117.444 123.583 L 116 124 L 116.444 125.5 L 116.667 126.056 L 117.333 127.972 L 118.056 129.667 L 118.583 130.278 L 118.833 130.639 L 120 131 L 119.917 128.944 L 119.722 127 L 119.722 126 L 120.306 124 L 121.306 122 L 121.667 121 L 121.889 120 L 122 118.056 L 122 116 L 121 115 L 112 115 M 132.083 115.5 L 130.417 116.5 L 129.111 118.083 L 128.306 120 L 128.111 121 L 127.917 123 L 127.611 125 L 127.389 126 L 127.194 128 L 127.361 128.972 L 127.722 129.889 L 129.111 131.278 L 130.028 131.667 L 131 131.889 L 133 131.917 L 134 131.75 L 135 131.5 L 136.889 130.5 L 138.361 128.917 L 138.889 127.972 L 139.583 126 L 139.944 124 L 140.056 123 L 140.222 122 L 140.389 121 L 140.583 120 L 140.667 119 L 140.25 117.111 L 139.667 116.333 L 138.889 115.722 L 137 115.111 L 135 115.028 L 134 115.083 L 132.083 115.5 M 147 115 L 147.278 116.5 L 147.833 118.056 L 148.583 120 L 148.889 121 L 149.056 122 L 149.083 123 L 148.833 124 L 148.444 125 L 147.139 127 L 146.389 128 L 145.083 129.944 L 144.694 130.5 L 144 132 L 145.417 131.639 L 145.833 131.278 L 146.667 130.667 L 148.139 128.972 L 148.833 128 L 150.083 126.056 L 150.472 125.5 L 151 124 L 152 125.5 L 152.806 127.056 L 153.222 128 L 154.25 129.889 L 154.806 130.667 L 155.778 131.639 L 157 132 L 156.722 130.5 L 156.528 129.944 L 155.75 128 L 155.25 127 L 154.583 125 L 154.556 124 L 154.722 123 L 155.722 121 L 157.111 119 L 157.75 118.056 L 158.639 116.5 L 159 115 L 157.528 115.778 L 157.028 116.306 L 156.167 117.111 L 155.389 118.028 L 153.833 119.889 L 152.972 120.694 L 152.472 121.222 L 151 122 L 150.917 120.5 L 150.583 118.944 L 149.889 117.111 L 149.417 116.333 L 148.389 115.361 L 147 115 M 166 115 L 166.083 116.5 L 166.417 118.056 L 167 120 L 167.667 122 L 168 123 L 168.583 125 L 168.833 127 L 168.75 127.944 L 168.583 128.944 L 168 131 L 169.139 130.639 L 169.333 130.278 L 169.75 129.667 L 169.972 128.889 L 170.5 127 L 171.417 125 L 172.028 124 L 173.333 122 L 174.667 120 L 175.306 119.056 L 175.917 118.056 L 176.306 117.5 L 177 116 L 175.583 116.778 L 175.167 117.306 L 174.333 118.111 L 173.611 119 L 171.972 120.667 L 170.5 121.639 L 169 122 L 168.917 120.5 L 168.778 119.944 L 168.583 118.944 L 167.944 117.111 L 167.417 116.306 L 167.167 115.778 L 166 115 M 102 116 L 103 117 L 102.972 119.056 L 102.917 120.056 L 102.583 121.944 L 102 124 L 95 124 L 95 117 L 96 116 L 102 116 M 132 116 L 133.5 116 L 135.056 116.111 L 136.889 116.722 L 137.667 117.333 L 138.278 118.111 L 138.861 120 L 138.889 121 L 138.611 123 L 138.389 124 L 137.972 126 L 137.694 127 L 137.278 127.972 L 135.889 129.667 L 134 130.639 L 133 130.778 L 132.028 130.639 L 131.111 130.278 L 129.722 128.889 L 129.333 127.972 L 129.111 127 L 129.083 125 L 129.222 124 L 129.639 122 L 129.861 121 L 130.417 119.056 L 130.861 118.056 L 131.028 117.5 L 132 116 z" stroke-linecap="round" />
</g>
</svg>